<svg width="34" height="35" viewBox="0 0 34 35" fill="none" xmlns="http://www.w3.org/2000/svg">
<g clip-path="url(#clip0_805_171)">
<path d="M9.82514 2.6928C9.78775 2.62065 9.76494 2.54185 9.75801 2.46088C9.75109 2.37992 9.76018 2.29839 9.78477 2.22094C9.80936 2.14349 9.84897 2.07165 9.90134 2.00952C9.95371 1.94738 10.0178 1.89617 10.09 1.85882C12.3042 0.732831 14.7639 0.175598 17.2472 0.237354C19.7305 0.299111 22.1595 0.977916 24.315 2.21257C24.3857 2.25323 24.4477 2.30749 24.4973 2.37221C24.5469 2.43694 24.5833 2.51085 24.6042 2.58968C24.6251 2.66851 24.6302 2.75071 24.6192 2.83152C24.6082 2.91234 24.5813 2.99018 24.5401 3.06055L17.419 15.2818C17.3647 15.3754 17.2866 15.4531 17.1928 15.507C17.099 15.5609 16.9926 15.5892 16.8844 15.589H16.8687C16.7578 15.5861 16.6498 15.5535 16.5558 15.4947C16.4618 15.4359 16.3852 15.353 16.3341 15.2546L9.82514 2.6928ZM16.5024 18.8484V18.8471L9.99323 6.28535C9.91763 6.13992 9.78756 6.0303 9.63143 5.98043C9.4753 5.93056 9.30577 5.94448 9.15987 6.01917C7.4251 6.90867 5.88307 8.13201 4.6223 9.61899C3.36152 11.106 2.40682 12.8273 1.81298 14.6842C1.21914 16.541 0.997864 18.4969 1.16185 20.4395C1.32583 22.3822 1.87184 24.2733 2.76855 26.0043C3.66525 27.7354 4.89499 29.2723 6.38719 30.5269C7.87939 31.7815 9.60467 32.729 11.464 33.3151C13.3233 33.9013 15.2801 34.1144 17.222 33.9424C19.1639 33.7703 21.0528 33.2164 22.7801 32.3125C22.9252 32.2366 23.0343 32.1063 23.0837 31.9501C23.1331 31.794 23.1188 31.6247 23.0438 31.4791L16.5024 18.8484ZM24.1324 30.7219L24.182 30.821C24.2568 30.9671 24.3857 31.0782 24.5412 31.1306C24.605 31.1518 24.6723 31.1602 24.7394 31.1554C24.8374 31.1527 24.934 31.1317 25.0243 31.0935C25.2497 30.9817 25.4689 30.8577 25.6807 30.7219C26.3107 30.3564 26.9112 29.9422 27.4768 29.4832H23.4883L24.1324 30.7219ZM22.8443 28.2446H28.8269C29.2115 27.8581 29.5676 27.4441 29.8921 27.006H22.2002L22.8443 28.2446ZM21.5685 25.7673H30.7716C31.0253 25.3696 31.2528 24.9559 31.4528 24.5287H20.9244L21.5685 25.7673ZM20.2803 23.29H31.9978C32.1622 22.8857 32.3028 22.4721 32.4189 22.0514H19.6362L20.2803 23.29ZM18.9921 20.8127H32.7286C32.8029 20.404 32.8649 19.9952 32.902 19.5741H18.3604L18.9921 20.8127ZM25.6312 5.15633C25.5617 5.1131 25.4837 5.08521 25.4025 5.07453C25.3214 5.06385 25.2389 5.07062 25.1605 5.0944C25.0803 5.11272 25.0047 5.1475 24.9386 5.19654C24.8725 5.24558 24.8173 5.30781 24.7765 5.37928L24.4421 5.94906H26.8327C26.4466 5.66352 26.0456 5.3989 25.6312 5.15633ZM28.3314 7.1877H23.7237L23.0053 8.42634H29.5081C29.1417 7.98973 28.7487 7.57607 28.3314 7.1877ZM30.4371 9.66498H22.2745L21.5561 10.9036H31.1927C30.9692 10.4741 30.7168 10.0603 30.4371 9.66498ZM31.7872 12.1423H20.8377L20.1192 13.3809H32.2703C32.133 12.9592 31.9717 12.5456 31.7872 12.1423ZM32.6171 14.6195H19.3884L18.67 15.8582H32.8401C32.7909 15.4412 32.7165 15.0275 32.6171 14.6195ZM32.9639 17.0968H17.9516L17.6543 17.6047C17.6007 17.6941 17.5713 17.796 17.5691 17.9003C17.5669 18.0046 17.5921 18.1076 17.642 18.1992L17.7163 18.3355H32.9887C33.0011 18.2116 33.0011 18.0754 33.0011 17.9515C33.0011 17.6666 32.9887 17.3817 32.9639 17.0968Z" fill="white"/>
<path d="M9.54053 5.40696C9.31349 4.97673 8.7791 4.80993 8.36227 5.06072C5.0624 7.04608 2.59701 10.182 1.4536 13.8808C0.223229 17.861 0.624356 22.1669 2.56873 25.8512C4.51311 29.5356 7.84147 32.2967 11.8216 33.5271C15.5204 34.6705 19.5006 34.4049 23.0018 32.801C23.4441 32.5985 23.608 32.0632 23.3809 31.6329L16.4607 18.52L9.54053 5.40696Z" fill="white"/>
</g>
<defs>
<clipPath id="clip0_805_171">
<rect width="32.745" height="34.8351" fill="white" transform="translate(0.47406 -0.319336)"/>
</clipPath>
</defs>
</svg>
